<svg width="70" height="70" viewBox="0 0 70 70" fill="none" xmlns="http://www.w3.org/2000/svg">
<rect width="70" height="70" fill="black"/>
<path d="M44.3232 29.9497L51 25.9931V27.7143V36H49.1429V30.1905V28.5991L47.709 29.2895L44.7261 30.7257L44.3232 29.9497Z" stroke="white" stroke-width="2"/>
<path d="M44.3232 29.9497L51 25.9931V27.7143V36H49.1429V30.1905V28.5991L47.709 29.2895L44.7261 30.7257L44.3232 29.9497Z" stroke="white" stroke-width="2"/>
<path d="M35.776 58.64C32.3627 58.64 29.7813 57.68 28.032 55.76C26.2827 53.7973 25.408 51.0027 25.408 47.376V44.816H32.064V47.888C32.064 50.7893 33.28 52.24 35.712 52.24C36.9067 52.24 37.8027 51.8987 38.4 51.216C39.04 50.4907 39.36 49.3387 39.36 47.76C39.36 45.8827 38.9333 44.24 38.08 42.832C37.2267 41.3813 35.648 39.6533 33.344 37.648C30.4427 35.088 28.416 32.784 27.264 30.736C26.112 28.6453 25.536 26.2987 25.536 23.696C25.536 20.1547 26.432 17.424 28.224 15.504C30.016 13.5413 32.6187 12.56 36.032 12.56C39.4027 12.56 41.9413 13.5413 43.648 15.504C45.3973 17.424 46.272 20.1973 46.272 23.824V25.68H39.616V23.376C39.616 21.84 39.3173 20.7307 38.72 20.048C38.1227 19.3227 37.248 18.96 36.096 18.96C33.7493 18.96 32.576 20.3893 32.576 23.248C32.576 24.8693 33.0027 26.384 33.856 27.792C34.752 29.2 36.352 30.9067 38.656 32.912C41.6 35.472 43.6267 37.7973 44.736 39.888C45.8453 41.9787 46.4 44.432 46.4 47.248C46.4 50.9173 45.4827 53.7333 43.648 55.696C41.856 57.6587 39.232 58.64 35.776 58.64Z" fill="white"/>
<path d="M23 44V51H20V44.5" stroke="black" stroke-width="6"/>
<path d="M46 21.5L40 25.5H46V21.5Z" stroke="black" stroke-width="2"/>
<rect x="43" y="23" width="3" height="2" fill="black"/>
<path d="M24.863 30.6168L24.7494 30.9971L23.0055 29.5375L21.3636 28.1634V30.3043V36H19V28.4783V25.219L24.863 30.6168Z" stroke="white" stroke-width="2"/>
<line x1="20.5" y1="27" x2="20.5" y2="35" stroke="white"/>
</svg>
